<svg width="920" height="160" viewBox="0 0 920 160" fill="none" xmlns="http://www.w3.org/2000/svg">
<path d="M915.269 95.8402C912.496 95.8402 911.109 94.7202 911.109 92.4802C911.109 91.3069 911.589 90.1335 912.549 88.9602C913.509 87.7869 914.682 87.2002 916.069 87.2002C917.242 87.2002 918.149 87.5735 918.789 88.3202C919.536 89.0669 919.909 89.9735 919.909 91.0402C919.909 92.2135 919.429 93.2802 918.469 94.2402C917.616 95.3069 916.549 95.8402 915.269 95.8402Z" fill="#CA65A5"/>
<path d="M823.085 143.68C820.419 143.68 819.085 141.707 819.085 137.76C819.085 135.094 820.259 131.307 822.605 126.4C824.952 121.6 828.579 115.68 833.485 108.64C836.792 103.84 840.205 99.0938 843.725 94.4005C847.245 89.7071 850.712 85.0138 854.125 80.3205V79.3605C854.125 77.4405 854.125 75.6271 854.125 73.9205C854.125 72.2138 854.072 70.6671 853.965 69.2805C853.219 70.3471 852.152 71.9471 850.765 74.0804C849.379 76.2138 847.565 78.6138 845.325 81.2805C845.219 81.3871 845.112 81.4404 845.005 81.4404C844.472 81.4404 844.205 80.9605 844.205 80.0005C844.205 79.2538 844.419 78.6138 844.845 78.0804C847.299 74.6671 849.219 71.0938 850.605 67.3604C852.099 63.6271 852.845 60.8538 852.845 59.0404C852.845 58.0804 852.579 57.2271 852.045 56.4804L851.085 55.3604C851.085 54.9338 851.459 54.5605 852.205 54.2405C853.059 53.9204 854.339 53.8671 856.045 54.0804C857.539 54.2938 858.605 54.9338 859.245 56.0005C859.992 57.0671 860.365 59.4138 860.365 63.0404C860.365 64.7471 860.312 66.8271 860.205 69.2805C860.099 71.6271 859.832 74.2404 859.405 77.1204C860.899 74.3471 862.712 71.2538 864.845 67.8405C867.085 64.3204 869.112 61.4405 870.925 59.2005C876.365 52.3738 881.005 48.9604 884.845 48.9604C888.259 48.9604 889.965 51.4671 889.965 56.4804C889.965 62.6671 887.779 69.9738 883.405 78.4004C881.699 81.7071 879.565 85.0138 877.005 88.3205C874.445 91.5205 871.725 94.0271 868.845 95.8405C873.539 95.7338 878.552 94.0805 883.885 90.8805C889.219 87.6805 894.499 82.1338 899.725 74.2405C900.045 73.7071 900.365 73.4404 900.685 73.4404C901.112 73.4404 901.325 73.7604 901.325 74.4004C901.325 75.3604 900.845 76.5338 899.885 77.9205C898.179 80.3738 896.632 82.4005 895.245 84.0005C893.965 85.4938 892.632 86.8805 891.245 88.1604C889.965 89.3338 888.365 90.6671 886.445 92.1604C883.032 94.7205 879.619 96.5338 876.205 97.6005C872.792 98.6671 869.539 99.2005 866.445 99.2005C864.525 99.2005 862.659 98.9871 860.845 98.5605C859.139 98.2405 857.539 97.8138 856.045 97.2805C854.339 101.654 852.419 106.027 850.285 110.4C848.152 114.774 845.592 119.36 842.605 124.16C834.712 137.174 828.205 143.68 823.085 143.68ZM864.525 95.5205C866.872 94.4538 869.112 92.5338 871.245 89.7604C873.485 86.8804 875.512 83.5205 877.325 79.6805C881.059 71.8938 882.925 65.2805 882.925 59.8405C882.925 56.5338 882.019 54.8805 880.205 54.8805C879.779 54.8805 879.245 54.9871 878.605 55.2005C876.685 56.0538 874.659 57.8138 872.525 60.4804C870.499 63.0405 868.472 66.2404 866.445 70.0804C864.845 73.0671 863.245 76.3205 861.645 79.8405C860.045 83.3605 858.765 86.7205 857.805 89.9205C858.979 89.9205 860.259 90.5605 861.645 91.8405C863.139 93.0138 864.099 94.2405 864.525 95.5205ZM825.645 138.08C830.445 138.08 836.899 130.4 845.005 115.04C846.072 113.014 847.192 110.24 848.365 106.72C849.539 103.2 850.712 98.9871 851.885 94.0804C851.779 93.8671 851.725 93.6005 851.725 93.2805C851.725 92.9605 851.725 92.6938 851.725 92.4804C851.725 91.2004 852.045 90.0271 852.685 88.9605C852.579 88.8538 852.472 88.8004 852.365 88.8004C851.939 88.8004 851.352 89.3338 850.605 90.4005L839.085 107.36C838.019 108.96 836.792 110.934 835.405 113.28C833.912 115.734 832.312 118.614 830.605 121.92C826.659 129.387 824.685 134.294 824.685 136.64C824.685 137.6 825.005 138.08 825.645 138.08Z" fill="#1E1E1E"/>
<path d="M821.294 95.2003C817.774 95.2003 814.681 94.187 812.014 92.1603C809.347 90.1336 808.014 86.7203 808.014 81.9203C808.014 79.0403 808.654 75.947 809.934 72.6403C811.214 69.227 812.921 66.027 815.054 63.0403C817.294 60.0536 819.747 57.6003 822.414 55.6803C825.081 53.7603 827.801 52.8003 830.574 52.8003C831.641 52.8003 832.547 53.1736 833.294 53.9203C834.147 54.667 834.574 55.787 834.574 57.2803C834.574 60.587 832.067 64.587 827.054 69.2803C825.027 71.2003 822.894 72.907 820.654 74.4003C818.521 75.8936 816.547 76.9603 814.734 77.6003C814.307 78.987 814.094 80.587 814.094 82.4003C814.094 84.8536 814.681 87.0936 815.854 89.1203C817.027 91.147 818.894 92.1603 821.454 92.1603C824.654 92.1603 827.587 91.2536 830.254 89.4403C832.921 87.627 835.374 85.4403 837.614 82.8803C839.854 80.2136 841.827 77.7603 843.534 75.5203C844.281 74.4536 845.027 73.9203 845.774 73.9203C846.201 73.9203 846.414 74.1336 846.414 74.5603C846.414 74.7736 846.361 75.0403 846.254 75.3603C846.147 75.5736 846.041 75.787 845.934 76.0003C844.121 78.5603 842.041 81.3336 839.694 84.3203C837.347 87.307 834.681 89.867 831.694 92.0003C828.707 94.1336 825.241 95.2003 821.294 95.2003ZM815.854 74.4003C818.627 73.227 821.507 71.147 824.494 68.1603C828.014 64.747 829.774 61.7603 829.774 59.2003C829.774 57.9203 829.134 57.2803 827.854 57.2803C826.147 57.2803 823.801 59.7336 820.814 64.6403C818.147 68.6936 816.494 71.947 815.854 74.4003Z" fill="#1E1E1E"/>
<path d="M787.003 95.2003C780.923 95.2003 777.883 91.3603 777.883 83.6803C777.883 80.267 778.416 76.9603 779.483 73.7603C780.656 70.5603 781.989 67.627 783.483 64.9603C779.749 68.267 775.803 72.3737 771.643 77.2803C767.589 82.0803 763.589 87.467 759.643 93.4403C759.003 94.4003 758.523 94.8803 758.203 94.8803C757.243 94.8803 756.763 93.9203 756.763 92.0003C756.763 91.5737 756.869 91.147 757.083 90.7203C758.256 87.8403 759.429 84.5336 760.603 80.8003C761.776 76.9603 762.949 72.4803 764.123 67.3603C764.336 66.2936 764.549 65.227 764.763 64.1603C764.976 63.0936 765.296 61.707 765.723 60.0003C765.936 59.3603 766.683 58.6136 767.963 57.7603C769.029 57.0136 770.096 56.6403 771.163 56.6403C771.909 56.6403 772.283 56.9603 772.283 57.6003C772.283 58.1337 771.643 60.427 770.363 64.4803C769.083 68.5336 767.216 74.347 764.763 81.9203C765.403 81.067 766.736 79.5203 768.763 77.2803C770.789 74.9337 773.456 71.947 776.763 68.3203L786.683 57.4403C787.429 56.6936 788.283 56.3203 789.243 56.3203C791.696 56.3203 792.923 57.547 792.923 60.0003C792.923 60.5336 792.709 61.1737 792.283 61.9203C786.309 71.7337 783.323 79.5203 783.323 85.2803C783.323 89.3337 785.243 91.3603 789.083 91.3603C791.856 91.3603 795.056 89.8137 798.683 86.7203C800.176 85.547 801.456 84.267 802.523 82.8803C803.696 81.387 804.923 79.787 806.203 78.0803C808.443 74.987 809.723 73.4403 810.043 73.4403C810.363 73.4403 810.523 73.7603 810.523 74.4003C810.523 75.0403 810.203 75.947 809.563 77.1203C802.309 89.1736 794.789 95.2003 787.003 95.2003Z" fill="#1E1E1E"/>
<path d="M692.537 159.2C687.31 159.2 683.043 157.707 679.737 154.72C676.217 151.627 674.457 147.627 674.457 142.72C674.457 131.414 682.617 120.48 698.937 109.92C712.803 101.067 726.083 95.6271 738.777 93.6005C739.523 90.2938 740.323 86.1871 741.177 81.2805C742.03 76.3738 742.937 70.6671 743.897 64.1605C743.257 65.6538 742.35 67.4671 741.177 69.6005C740.003 71.7338 738.617 73.9738 737.017 76.3205C735.203 79.0938 733.657 81.3871 732.377 83.2005C731.097 84.9071 729.817 86.4005 728.537 87.6805C725.87 90.5605 723.257 92.0005 720.697 92.0005C717.283 92.0005 715.577 89.0138 715.577 83.0405C715.577 79.7338 716.643 75.6271 718.777 70.7205C721.123 65.1738 723.843 62.4005 726.937 62.4005C728.43 62.4005 729.177 62.8271 729.177 63.6805C729.177 63.7871 728.91 64.3205 728.377 65.2805C727.843 66.2405 726.777 68.1071 725.177 70.8805C722.51 75.5738 721.177 79.2538 721.177 81.9205C721.177 85.3338 722.137 87.0405 724.057 87.0405C727.47 87.0405 734.67 76.3205 745.657 54.8805C745.87 53.2805 747.203 52.4805 749.657 52.4805C751.577 52.4805 752.537 52.9071 752.537 53.7605C752.537 54.5071 752.377 56.0005 752.057 58.2405C751.737 60.4805 751.203 63.5205 750.457 67.3605C749.497 72.6938 748.643 77.2805 747.897 81.1205C747.15 84.8538 746.243 88.9605 745.177 93.4405H745.817C751.47 93.4405 754.297 94.8805 754.297 97.7605C754.297 98.4005 754.137 98.7205 753.817 98.7205C753.71 98.7205 753.23 98.4538 752.377 97.9205C751.95 97.7071 751.363 97.3871 750.617 96.9605C749.87 96.6405 748.91 96.4805 747.737 96.4805C747.203 96.4805 746.67 96.4805 746.137 96.4805C745.71 96.4805 745.23 96.5338 744.697 96.6405C740.75 112.427 735.683 124.854 729.497 133.92C717.977 150.774 705.657 159.2 692.537 159.2ZM693.337 156.96C699.95 156.96 706.403 154.187 712.697 148.64C717.71 144.374 722.243 138.774 726.297 131.84C731.95 122.134 736.057 110.347 738.617 96.4805C731.683 97.5471 723.31 100.587 713.497 105.6C703.577 110.614 696.163 115.52 691.257 120.32C683.15 128 679.097 135.627 679.097 143.2C679.097 147.36 680.377 150.667 682.937 153.12C685.71 155.68 689.177 156.96 693.337 156.96Z" fill="#1E1E1E"/>
<path d="M691.225 95.2003C687.705 95.2003 684.612 94.187 681.945 92.1603C679.279 90.1336 677.945 86.7203 677.945 81.9203C677.945 79.0403 678.585 75.947 679.865 72.6403C681.145 69.227 682.852 66.027 684.985 63.0403C687.225 60.0536 689.679 57.6003 692.345 55.6803C695.012 53.7603 697.732 52.8003 700.505 52.8003C701.572 52.8003 702.479 53.1736 703.225 53.9203C704.079 54.667 704.505 55.787 704.505 57.2803C704.505 60.587 701.999 64.587 696.985 69.2803C694.959 71.2003 692.825 72.907 690.585 74.4003C688.452 75.8936 686.479 76.9603 684.665 77.6003C684.239 78.987 684.025 80.587 684.025 82.4003C684.025 84.8536 684.612 87.0936 685.785 89.1203C686.959 91.147 688.825 92.1603 691.385 92.1603C694.585 92.1603 697.519 91.2536 700.185 89.4403C702.852 87.627 705.305 85.4403 707.545 82.8803C709.785 80.2136 711.759 77.7603 713.465 75.5203C714.212 74.4536 714.959 73.9203 715.705 73.9203C716.132 73.9203 716.345 74.1336 716.345 74.5603C716.345 74.7736 716.292 75.0403 716.185 75.3603C716.079 75.5736 715.972 75.787 715.865 76.0003C714.052 78.5603 711.972 81.3336 709.625 84.3203C707.279 87.307 704.612 89.867 701.625 92.0003C698.639 94.1336 695.172 95.2003 691.225 95.2003ZM685.785 74.4003C688.559 73.227 691.439 71.147 694.425 68.1603C697.945 64.747 699.705 61.7603 699.705 59.2003C699.705 57.9203 699.065 57.2803 697.785 57.2803C696.079 57.2803 693.732 59.7336 690.745 64.6403C688.079 68.6936 686.425 71.947 685.785 74.4003Z" fill="#1E1E1E"/>
<path d="M651.289 95.8405C648.942 95.8405 646.115 95.4138 642.809 94.5605C639.502 93.8138 636.089 92.9605 632.569 92.0005C629.049 90.9338 625.689 90.0271 622.489 89.2805C619.289 88.4271 616.515 88.0005 614.169 88.0005C611.395 88.0005 608.249 88.6938 604.729 90.0805C601.209 91.4671 597.635 92.5871 594.009 93.4405C593.155 93.4405 592.622 93.3338 592.409 93.1205C591.769 92.9071 591.449 92.1605 591.449 90.8805C591.449 89.6005 592.249 88.8005 593.849 88.4805C597.582 87.7338 601.582 86.0805 605.849 83.5205C610.115 80.8538 614.435 77.7071 618.809 74.0805C623.182 70.4538 627.342 66.7205 631.289 62.8805C635.342 58.9338 638.862 55.3605 641.849 52.1605C648.249 45.3338 654.595 38.7204 660.889 32.3204C667.289 25.8138 672.995 20.2671 678.009 15.6804C675.769 15.3604 672.782 15.0405 669.049 14.7205C665.315 14.2938 661.262 13.9738 656.889 13.7605C652.622 13.5471 648.355 13.4938 644.089 13.6005C640.035 13.7071 636.355 14.6138 633.049 16.3205C629.742 18.0271 627.022 20.2671 624.889 23.0404C622.862 25.7071 621.689 28.6405 621.369 31.8405C620.942 34.1871 621.422 35.9471 622.809 37.1205C624.302 38.2938 625.689 38.8805 626.969 38.8805C630.062 38.8805 632.355 38.0271 633.849 36.3205C635.342 34.6138 637.102 32.5871 639.129 30.2405C639.235 30.0271 639.449 29.9205 639.769 29.9205C640.195 29.9205 640.515 30.1338 640.729 30.5604C641.049 30.9871 641.102 31.3604 640.889 31.6804C639.289 34.3471 637.209 36.6938 634.649 38.7205C632.195 40.7471 629.582 41.7605 626.809 41.7605C624.142 41.7605 621.849 40.9071 619.929 39.2005C618.115 37.3871 617.209 34.9871 617.209 32.0004C617.209 31.6804 617.209 31.3605 617.209 31.0405C617.209 30.7205 617.262 30.3471 617.369 29.9205C618.115 25.1205 619.982 20.9604 622.969 17.4405C625.955 13.8138 629.582 11.0405 633.849 9.12045C638.222 7.20045 642.649 6.24045 647.129 6.24045C649.262 6.24045 651.875 6.50712 654.969 7.04045C658.062 7.46712 661.155 8.00045 664.249 8.64045C667.449 9.17378 670.329 9.70712 672.889 10.2404C675.449 10.6671 677.262 10.8804 678.329 10.8804C680.462 10.8804 682.222 10.5071 683.609 9.76045C684.995 8.90712 686.542 7.78712 688.249 6.40045C689.315 5.44045 690.275 4.96045 691.129 4.96045C692.089 4.96045 692.729 5.44045 693.049 6.40045C693.369 7.36045 693.422 8.26712 693.209 9.12045C693.209 10.2938 692.835 11.0938 692.089 11.5205C686.755 14.0804 681.475 17.7605 676.249 22.5605C671.022 27.2538 665.795 32.4804 660.569 38.2404C655.342 44.0005 650.062 49.7605 644.729 55.5205C640.569 60.0005 635.982 64.4805 630.969 68.9605C626.062 73.3338 621.529 77.1205 617.369 80.3205C619.502 80.4271 621.955 80.9605 624.729 81.9205C627.609 82.8805 630.595 83.9471 633.689 85.1205C636.782 86.2938 639.715 87.3071 642.489 88.1605C645.369 89.0138 647.875 89.4405 650.009 89.4405C655.769 89.4405 660.835 87.8405 665.209 84.6405C669.582 81.3338 673.902 75.9471 678.169 68.4805C678.702 67.6271 679.395 67.2005 680.249 67.2005C680.782 67.2005 681.049 67.4671 681.049 68.0005C681.049 68.5338 680.835 69.0671 680.409 69.6005L679.289 71.2005C676.622 75.3605 673.902 79.3605 671.129 83.2005C668.462 86.9338 665.529 89.9738 662.329 92.3205C659.129 94.6671 655.449 95.8405 651.289 95.8405Z" fill="#1E1E1E"/>
<path d="M517.393 94.88C516.539 94.88 516.113 93.92 516.113 92C516.113 91.36 516.166 90.9334 516.273 90.72C517.446 87.84 518.673 84.3734 519.953 80.32C521.233 76.2667 522.513 71.6267 523.793 66.4C523.9 65.6534 524.006 64.9067 524.113 64.16C524.326 63.4134 524.646 62.0267 525.073 60C525.179 59.7867 525.393 59.4667 525.713 59.04C526.033 58.6134 526.513 58.1867 527.153 57.76C528.326 57.0134 529.393 56.64 530.353 56.64C531.1 56.64 531.473 56.96 531.473 57.6C531.473 58.1334 530.833 60.4267 529.553 64.48C528.273 68.5334 526.406 74.3467 523.953 81.92L541.553 58.4C543.046 56.48 544.699 55.52 546.513 55.52C548.219 55.52 549.073 56.48 549.073 58.4C549.073 59.1467 548.966 60.2134 548.753 61.6C548.646 62.88 548.379 64.5334 547.953 66.56C547.526 68.5867 547.1 71.1467 546.673 74.24C546.353 77.2267 545.926 80.6934 545.393 84.64C546.886 82.5067 548.753 79.8934 550.993 76.8C553.339 73.6 556.113 69.9734 559.313 65.92C560.913 63.8934 562.619 62.88 564.433 62.88C566.033 62.88 566.833 63.8934 566.833 65.92C566.833 66.7734 566.726 67.84 566.513 69.12C566.406 70.2934 566.246 71.7334 566.033 73.44C565.82 75.1467 565.606 76.64 565.393 77.92C565.286 79.2 565.233 80.2667 565.233 81.12C565.233 86.6667 566.673 89.44 569.553 89.44C573.713 89.44 578.886 84.96 585.073 76C585.819 74.9334 586.353 74.4 586.673 74.4C587.206 74.4 587.473 74.88 587.473 75.84C587.473 76.0534 587.366 76.32 587.153 76.64C587.046 76.8534 587.046 76.9067 587.153 76.8C585.873 78.5067 584.539 80.2134 583.153 81.92C581.766 83.6267 580.113 85.3867 578.193 87.2C573.819 91.4667 569.98 93.6 566.673 93.6C561.66 93.6 559.153 88.0534 559.153 76.96C559.153 76.1067 559.153 75.2 559.153 74.24C559.153 73.28 559.206 72.2667 559.313 71.2C557.393 72.9067 555.26 75.4133 552.913 78.72C550.673 81.92 548.486 85.5467 546.353 89.6C544.753 92.5867 542.993 94.08 541.073 94.08C540.433 94.08 539.953 93.8667 539.633 93.44C539.313 92.2667 539.153 90.7734 539.153 88.96C539.153 87.5734 539.313 85.44 539.633 82.56C539.953 79.5734 540.486 76 541.233 71.84C541.553 69.92 541.82 68.2667 542.033 66.88C542.246 65.4934 542.353 64.5333 542.353 64C542.353 63.1467 542.193 62.72 541.873 62.72C541.019 63.4667 539.74 64.8534 538.033 66.88C536.433 68.8 534.779 70.88 533.073 73.12C530.939 76 528.646 79.1467 526.193 82.56C523.846 85.8667 521.446 89.4934 518.993 93.44C518.353 94.4 517.819 94.88 517.393 94.88Z" fill="#1E1E1E"/>
<path d="M494.838 60.48C494.624 60.48 494.518 60.3734 494.518 60.16C494.518 59.9467 494.571 59.7334 494.678 59.52C494.784 59.3067 495.104 58.88 495.638 58.24C496.171 57.4934 497.078 56.2667 498.358 54.56C499.744 52.7467 501.451 50.3467 503.478 47.36C501.558 47.36 500.598 46.1867 500.598 43.84C500.598 40.96 502.411 39.52 506.038 39.52C508.171 39.52 509.238 40.8534 509.238 43.52C509.238 45.5467 507.318 48.9067 503.478 53.6C499.638 58.1867 496.758 60.48 494.838 60.48Z" fill="#1E1E1E"/>
<path d="M443.885 99.8404C439.725 99.8404 437.379 97.3337 436.845 92.3204C435.459 92.427 433.219 92.8004 430.125 93.4404C427.032 94.0804 423.352 94.827 419.085 95.6804C415.032 96.5337 411.672 97.1737 409.005 97.6004C406.232 98.1337 404.205 98.4004 402.925 98.4004C401.645 98.4004 401.005 97.707 401.005 96.3204C401.005 95.467 401.539 94.827 402.605 94.4004C403.032 94.187 404.045 93.867 405.645 93.4404C407.245 93.0137 409.485 92.427 412.365 91.6804C416.739 90.507 420.952 89.547 425.005 88.8004C429.059 87.947 433.059 87.2537 437.005 86.7204C437.539 82.2404 438.872 76.9604 441.005 70.8804C443.245 64.8004 446.392 57.547 450.445 49.1204C454.179 41.547 457.699 34.8804 461.005 29.1204C464.312 23.3604 467.619 18.1337 470.925 13.4404H468.205C465.112 13.4404 462.232 13.4937 459.565 13.6004C456.899 13.707 454.445 13.867 452.205 14.0804C438.872 15.6804 432.205 18.2404 432.205 21.7604C432.205 23.2537 433.699 24.8537 436.685 26.5604C439.672 28.267 441.165 29.4404 441.165 30.0804C441.165 30.9337 440.632 31.3604 439.565 31.3604C439.139 31.3604 438.765 31.307 438.445 31.2004C429.912 27.147 425.645 23.5737 425.645 20.4804C425.645 18.1337 427.939 15.8404 432.525 13.6004C438.605 10.7204 448.525 9.28037 462.285 9.28037C464.099 9.28037 465.965 9.3337 467.885 9.44037C469.805 9.44037 471.779 9.4937 473.805 9.60036C475.085 7.78704 477.699 6.88037 481.645 6.88037C483.245 6.88037 484.045 7.20037 484.045 7.84037C484.045 8.0537 483.512 8.8537 482.445 10.2404C488.419 10.667 494.552 11.307 500.845 12.1604C501.485 12.267 502.285 12.3737 503.245 12.4804C504.205 12.587 505.272 12.747 506.445 12.9604C507.619 13.2804 508.205 13.867 508.205 14.7204C508.205 15.5737 507.619 16.0004 506.445 16.0004L505.965 15.8404C503.085 15.5204 499.459 15.2004 495.085 14.8804C490.712 14.4537 485.592 14.027 479.725 13.6004C475.032 19.5737 470.712 25.547 466.765 31.5204C462.819 37.387 459.459 42.9337 456.685 48.1604C448.259 64.1604 443.192 76.8004 441.485 86.0804C446.925 85.4404 451.832 85.1204 456.205 85.1204C465.912 85.1204 471.779 86.2404 473.805 88.4804C474.445 89.227 474.765 90.2937 474.765 91.6804C474.765 92.5337 474.605 93.2804 474.285 93.9204C474.072 94.5604 473.699 94.7204 473.165 94.4004C471.885 93.6537 469.965 93.067 467.405 92.6404C464.952 92.2137 462.392 91.8937 459.725 91.6804C457.165 91.467 455.085 91.3604 453.485 91.3604C451.565 91.3604 449.539 91.4137 447.405 91.5204C445.379 91.627 443.245 91.787 441.005 92.0004C441.219 95.0937 442.285 96.6404 444.205 96.6404C444.739 96.6404 445.379 96.5337 446.125 96.3204C446.872 96.2137 447.672 95.8937 448.525 95.3604C449.379 94.827 450.019 94.347 450.445 93.9204C450.872 93.387 451.139 93.1204 451.245 93.1204C452.099 93.1204 452.525 93.6004 452.525 94.5604C452.525 95.947 451.459 97.1204 449.325 98.0804C446.979 99.2537 445.165 99.8404 443.885 99.8404Z" fill="#1E1E1E"/>
<path d="M333.018 77.9202C332.271 77.9202 331.898 77.5469 331.898 76.8002C331.898 74.9869 336.538 65.0669 345.818 47.0402C349.231 40.4269 352.005 35.0935 354.138 31.0402C356.378 26.8802 358.138 23.6269 359.418 21.2802C360.805 18.9335 361.925 17.0135 362.778 15.5202C362.991 15.3069 363.151 15.2002 363.258 15.2002C364.005 15.2002 365.071 15.7335 366.458 16.8002C367.951 17.9735 368.698 18.7735 368.698 19.2002L367.738 20.6402L363.418 27.3602C357.871 36.1069 352.965 44.0002 348.698 51.0402C344.538 58.0802 341.125 64.2135 338.458 69.4402L335.418 75.8402C334.778 77.2269 333.978 77.9202 333.018 77.9202ZM326.458 96.0002C323.685 96.0002 322.298 94.7202 322.298 92.1602C322.298 89.6002 323.685 88.3202 326.458 88.3202C329.125 88.3202 330.458 89.6002 330.458 92.1602C330.458 94.7202 329.125 96.0002 326.458 96.0002Z" fill="#CA65A5"/>
<path d="M255.901 96.16C252.168 96.16 250.301 93.9733 250.301 89.6C250.301 83.52 252.968 76.3733 258.301 68.16C258.195 67.6267 258.088 67.04 257.981 66.4C257.981 65.76 257.981 65.1733 257.981 64.64C257.981 60.8 259.261 57.0667 261.821 53.44C264.381 49.8133 267.528 48 271.261 48C274.461 48 276.595 49.12 277.661 51.36C278.835 53.6 279.421 56.1067 279.421 58.88C279.421 61.2267 279.155 63.4667 278.621 65.6C278.088 67.84 277.288 70.3467 276.221 73.12C275.155 75.8933 273.821 78.8267 272.221 81.92C273.821 82.88 275.635 83.36 277.661 83.36C279.475 83.36 281.181 83.1467 282.781 82.72C284.381 82.1867 285.875 81.2267 287.261 79.84C288.648 78.4533 289.715 77.2267 290.461 76.16C291.315 75.0933 291.688 74.6133 291.581 74.72C291.795 74.5067 292.008 74.4 292.221 74.4C292.648 74.4 292.968 74.6667 293.181 75.2C293.501 75.7333 293.448 76.2667 293.021 76.8C291.315 79.2533 289.075 81.44 286.301 83.36C283.635 85.1733 280.701 86.08 277.501 86.08C275.048 86.08 272.915 85.5467 271.101 84.48C266.195 92.2667 261.128 96.16 255.901 96.16ZM270.141 80.48C271.528 77.0667 272.595 74.1333 273.341 71.68C274.088 69.2267 274.461 66.9333 274.461 64.8V63.52C274.461 60.64 273.981 57.9733 273.021 55.52C272.061 52.96 270.675 51.68 268.861 51.68C266.408 51.68 264.488 53.1733 263.101 56.16C262.141 58.1867 261.661 60.4267 261.661 62.88V63.84C263.368 61.8133 265.075 60.8 266.781 60.8C268.381 60.8 269.555 61.3333 270.301 62.4C270.621 62.8267 270.781 63.2 270.781 63.52C270.781 64.16 270.141 64.48 268.861 64.48C266.941 64.48 264.915 66.5067 262.781 70.56C264.275 74.72 266.728 78.0267 270.141 80.48ZM258.461 92.32C259.848 92.32 261.821 91.04 264.381 88.48C265.448 87.4133 266.355 86.4 267.101 85.44C267.848 84.48 268.435 83.5733 268.861 82.72C265.235 80.2667 262.568 77.5467 260.861 74.56C257.661 81.28 256.061 86.1333 256.061 89.12C256.061 91.2533 256.861 92.32 258.461 92.32Z" fill="#CA65A5"/>
<path d="M227.45 96.32C221.69 96.32 218.117 92.8533 216.73 85.92C216.624 84.96 216.464 84 216.25 83.04C216.144 82.08 216.09 81.12 216.09 80.16C216.09 75.36 216.944 70.4533 218.65 65.44C220.464 60.4267 222.65 55.52 225.21 50.72C227.77 45.92 230.117 41.4933 232.25 37.44C234.277 33.7067 236.517 30.0267 238.97 26.4C241.53 22.6667 244.037 19.2533 246.49 16.16C248.944 13.0667 251.024 10.56 252.73 8.64C255.504 5.54667 258.17 3.36 260.73 2.08C263.29 0.693334 265.584 0 267.61 0C268.997 0 270.224 0.693334 271.29 2.08C272.464 3.57334 273.05 5.01334 273.05 6.4C273.05 13.76 266.17 26.08 252.41 43.36C246.97 50.1867 241.744 56.3733 236.73 61.92C231.717 67.36 226.864 72.2667 222.17 76.64C222.064 77.4933 221.957 78.4 221.85 79.36C221.85 80.2133 221.85 81.0667 221.85 81.92C221.85 85.5467 222.437 88.32 223.61 90.24C224.784 92.0533 226.864 92.96 229.85 92.96C232.837 92.96 236.304 91.2533 240.25 87.84C244.304 84.32 248.464 79.4133 252.73 73.12C253.05 72.5867 253.424 72.2667 253.85 72.16C254.49 72.16 254.81 72.5333 254.81 73.28C254.81 73.8133 254.704 74.24 254.49 74.56C252.997 77.12 251.29 79.5733 249.37 81.92C247.557 84.2667 245.477 86.5067 243.13 88.64C240.464 90.9867 237.797 92.8533 235.13 94.24C232.57 95.6267 230.01 96.32 227.45 96.32ZM222.49 73.12C225.477 70.56 228.997 66.88 233.05 62.08C237.21 57.1733 241.584 51.4667 246.17 44.96C256.517 30.6667 262.704 20.32 264.73 13.92C265.69 10.8267 266.17 8.53334 266.17 7.04C266.17 5.01334 265.477 4.00001 264.09 4.00001C260.997 4.00001 257.21 6.98667 252.73 12.96C250.17 16.3733 247.184 20.7467 243.77 26.08C240.357 31.3067 237.05 37.0133 233.85 43.2C230.117 50.3467 227.45 56.2667 225.85 60.96C224.357 65.6533 223.237 69.7067 222.49 73.12Z" fill="#CA65A5"/>
<path d="M189.719 96.32C183.959 96.32 180.386 92.8533 178.999 85.92C178.892 84.96 178.732 84 178.519 83.04C178.412 82.08 178.359 81.12 178.359 80.16C178.359 75.36 179.212 70.4533 180.919 65.44C182.732 60.4267 184.919 55.52 187.479 50.72C190.039 45.92 192.386 41.4933 194.519 37.44C196.546 33.7067 198.786 30.0267 201.239 26.4C203.799 22.6667 206.306 19.2533 208.759 16.16C211.212 13.0667 213.292 10.56 214.999 8.64C217.772 5.54667 220.439 3.36 222.999 2.08C225.559 0.693334 227.852 0 229.879 0C231.266 0 232.492 0.693334 233.559 2.08C234.732 3.57334 235.319 5.01334 235.319 6.4C235.319 13.76 228.439 26.08 214.679 43.36C209.239 50.1867 204.012 56.3733 198.999 61.92C193.986 67.36 189.132 72.2667 184.439 76.64C184.332 77.4933 184.226 78.4 184.119 79.36C184.119 80.2133 184.119 81.0667 184.119 81.92C184.119 85.5467 184.706 88.32 185.879 90.24C187.052 92.0533 189.132 92.96 192.119 92.96C195.106 92.96 198.572 91.2533 202.519 87.84C206.572 84.32 210.732 79.4133 214.999 73.12C215.319 72.5867 215.692 72.2667 216.119 72.16C216.759 72.16 217.079 72.5333 217.079 73.28C217.079 73.8133 216.972 74.24 216.759 74.56C215.266 77.12 213.559 79.5733 211.639 81.92C209.826 84.2667 207.746 86.5067 205.399 88.64C202.732 90.9867 200.066 92.8533 197.399 94.24C194.839 95.6267 192.279 96.32 189.719 96.32ZM184.759 73.12C187.746 70.56 191.266 66.88 195.319 62.08C199.479 57.1733 203.852 51.4667 208.439 44.96C218.786 30.6667 224.972 20.32 226.999 13.92C227.959 10.8267 228.439 8.53334 228.439 7.04C228.439 5.01334 227.746 4.00001 226.359 4.00001C223.266 4.00001 219.479 6.98667 214.999 12.96C212.439 16.3733 209.452 20.7467 206.039 26.08C202.626 31.3067 199.319 37.0133 196.119 43.2C192.386 50.3467 189.719 56.2667 188.119 60.96C186.626 65.6533 185.506 69.7067 184.759 73.12Z" fill="#CA65A5"/>
<path d="M153.688 95.2003C150.168 95.2003 147.074 94.187 144.408 92.1603C141.741 90.1336 140.408 86.7203 140.408 81.9203C140.408 79.0403 141.048 75.947 142.328 72.6403C143.608 69.227 145.314 66.027 147.448 63.0403C149.688 60.0536 152.141 57.6003 154.808 55.6803C157.474 53.7603 160.194 52.8003 162.968 52.8003C164.034 52.8003 164.941 53.1736 165.688 53.9203C166.541 54.667 166.968 55.787 166.968 57.2803C166.968 60.587 164.461 64.587 159.448 69.2803C157.421 71.2003 155.288 72.907 153.048 74.4003C150.914 75.8936 148.941 76.9603 147.128 77.6003C146.701 78.987 146.488 80.587 146.488 82.4003C146.488 84.8536 147.074 87.0936 148.248 89.1203C149.421 91.147 151.288 92.1603 153.848 92.1603C157.048 92.1603 159.981 91.2536 162.648 89.4403C165.314 87.627 167.768 85.4403 170.008 82.8803C172.248 80.2136 174.221 77.7603 175.928 75.5203C176.674 74.4536 177.421 73.9203 178.168 73.9203C178.594 73.9203 178.808 74.1336 178.808 74.5603C178.808 74.7736 178.754 75.0403 178.648 75.3603C178.541 75.5736 178.434 75.787 178.328 76.0003C176.514 78.5603 174.434 81.3336 172.088 84.3203C169.741 87.307 167.074 89.867 164.088 92.0003C161.101 94.1336 157.634 95.2003 153.688 95.2003ZM148.248 74.4003C151.021 73.227 153.901 71.147 156.888 68.1603C160.408 64.747 162.168 61.7603 162.168 59.2003C162.168 57.9203 161.528 57.2803 160.248 57.2803C158.541 57.2803 156.194 59.7336 153.208 64.6403C150.541 68.6936 148.888 71.947 148.248 74.4003Z" fill="#CA65A5"/>
<path d="M27.84 108.8C20.5867 108.8 14.2933 107.04 8.96 103.52C2.98667 99.467 0 93.9203 0 86.8803C0 73.7603 10.8267 64.1603 32.48 58.0803C39.7333 55.947 47.4133 54.4003 55.52 53.4403C63.7333 52.4803 72.2667 52.0003 81.12 52.0003C83.04 52.0003 84.8533 52.0537 86.56 52.1603C88.2667 52.1603 89.8133 52.2137 91.2 52.3203C96.7467 38.667 99.52 28.4803 99.52 21.7603C99.52 17.6003 98.1867 15.5203 95.52 15.5203C94.1333 15.5203 92.3733 16.107 90.24 17.2803C88.1067 18.4537 86.9333 19.0403 86.72 19.0403C86.08 19.0403 85.76 18.5603 85.76 17.6003C85.76 16.2137 87.52 14.827 91.04 13.4403C94.24 12.1603 96.8 11.5203 98.72 11.5203C103.627 11.5203 106.08 14.987 106.08 21.9203C106.08 29.2803 103.52 39.627 98.4 52.9603C108 54.2403 115.253 55.7337 120.16 57.4403L125.28 45.9203C129.12 37.2803 132.747 30.027 136.16 24.1603C139.68 18.187 142.827 13.547 145.6 10.2403C147.093 8.64033 149.653 7.84033 153.28 7.84033C154.667 7.84033 155.36 8.107 155.36 8.64033C155.36 8.747 155.253 9.01366 155.04 9.44033C141.813 27.147 131.733 43.787 124.8 59.3603C131.627 62.667 135.04 66.187 135.04 69.9203C135.04 70.667 134.773 71.5737 134.24 72.6403C133.6 73.6003 132.907 74.0803 132.16 74.0803C130.88 74.0803 130.24 73.4403 130.24 72.1603C130.24 71.8403 130.4 71.467 130.72 71.0403C131.04 70.507 131.2 70.0803 131.2 69.7603C131.2 67.627 128.533 65.3337 123.2 62.8803C117.44 76.427 114.56 86.4537 114.56 92.9603C114.56 96.8003 115.68 98.7203 117.92 98.7203C118.773 98.7203 120.107 98.1337 121.92 96.9603C123.84 95.6803 124.8 95.0403 124.8 95.0403C125.76 95.0403 126.24 95.5203 126.24 96.4803C126.24 97.6537 125.173 98.827 123.04 100C120.8 101.28 118.987 101.92 117.6 101.92C112.693 101.92 110.24 98.667 110.24 92.1603C110.24 85.547 113.067 75.2003 118.72 61.1203C112.96 59.307 105.547 57.9203 96.48 56.9603C92.8533 63.787 88.7467 69.9203 84.16 75.3603C79.5733 80.8003 74.1333 86.1337 67.84 91.3603C60.3733 97.547 53.3333 101.974 46.72 104.64C40.1067 107.414 33.8133 108.8 27.84 108.8ZM27.84 104.96C39.36 104.96 51.4133 99.467 64 88.4803C74.7733 78.987 83.1467 68.3203 89.12 56.4803C87.9467 56.3737 86.6133 56.3203 85.12 56.3203C83.7333 56.2137 82.2933 56.1603 80.8 56.1603C64.6933 56.1603 49.76 58.0803 36 61.9203C15.7333 67.467 5.6 76.1603 5.6 88.0003C5.6 93.6537 8.05334 97.9737 12.96 100.96C17.0133 103.627 21.9733 104.96 27.84 104.96Z" fill="#CA65A5"/>
</svg>
