<svg width="519" height="320" viewBox="0 0 519 320" fill="none" xmlns="http://www.w3.org/2000/svg">
<g clip-path="url(#clip0_60_711)">
<path d="M514.264 255.84C511.491 255.84 510.104 254.72 510.104 252.48C510.104 251.307 510.584 250.134 511.544 248.96C512.504 247.787 513.677 247.2 515.064 247.2C516.237 247.2 517.144 247.574 517.784 248.32C518.531 249.067 518.904 249.974 518.904 251.04C518.904 252.214 518.424 253.28 517.464 254.24C516.611 255.307 515.544 255.84 514.264 255.84Z" fill="#CA65A5"/>
<path d="M422.08 303.68C419.413 303.68 418.08 301.707 418.08 297.76C418.08 295.094 419.253 291.307 421.6 286.4C423.947 281.6 427.573 275.68 432.48 268.64C435.787 263.84 439.2 259.094 442.72 254.4C446.24 249.707 449.707 245.014 453.12 240.32V239.36C453.12 237.44 453.12 235.627 453.12 233.92C453.12 232.214 453.067 230.667 452.96 229.28C452.213 230.347 451.147 231.947 449.76 234.08C448.373 236.214 446.56 238.614 444.32 241.28C444.213 241.387 444.107 241.44 444 241.44C443.467 241.44 443.2 240.96 443.2 240C443.2 239.254 443.413 238.614 443.84 238.08C446.293 234.667 448.213 231.094 449.6 227.36C451.093 223.627 451.84 220.854 451.84 219.04C451.84 218.08 451.573 217.227 451.04 216.48L450.08 215.36C450.08 214.934 450.453 214.56 451.2 214.24C452.053 213.92 453.333 213.867 455.04 214.08C456.533 214.294 457.6 214.934 458.24 216C458.987 217.067 459.36 219.414 459.36 223.04C459.36 224.747 459.307 226.827 459.2 229.28C459.093 231.627 458.827 234.24 458.4 237.12C459.893 234.347 461.707 231.254 463.84 227.84C466.08 224.32 468.107 221.44 469.92 219.2C475.36 212.374 480 208.96 483.84 208.96C487.253 208.96 488.96 211.467 488.96 216.48C488.96 222.667 486.773 229.974 482.4 238.4C480.693 241.707 478.56 245.014 476 248.32C473.44 251.52 470.72 254.027 467.84 255.84C472.533 255.734 477.547 254.08 482.88 250.88C488.213 247.68 493.493 242.134 498.72 234.24C499.04 233.707 499.36 233.44 499.68 233.44C500.107 233.44 500.32 233.76 500.32 234.4C500.32 235.36 499.84 236.534 498.88 237.92C497.173 240.374 495.627 242.4 494.24 244C492.96 245.494 491.627 246.88 490.24 248.16C488.96 249.334 487.36 250.667 485.44 252.16C482.027 254.72 478.613 256.534 475.2 257.6C471.787 258.667 468.533 259.2 465.44 259.2C463.52 259.2 461.653 258.987 459.84 258.56C458.133 258.24 456.533 257.814 455.04 257.28C453.333 261.654 451.413 266.027 449.28 270.4C447.147 274.774 444.587 279.36 441.6 284.16C433.707 297.174 427.2 303.68 422.08 303.68ZM463.52 255.52C465.867 254.454 468.107 252.534 470.24 249.76C472.48 246.88 474.507 243.52 476.32 239.68C480.053 231.894 481.92 225.28 481.92 219.84C481.92 216.534 481.013 214.88 479.2 214.88C478.773 214.88 478.24 214.987 477.6 215.2C475.68 216.054 473.653 217.814 471.52 220.48C469.493 223.04 467.467 226.24 465.44 230.08C463.84 233.067 462.24 236.32 460.64 239.84C459.04 243.36 457.76 246.72 456.8 249.92C457.973 249.92 459.253 250.56 460.64 251.84C462.133 253.014 463.093 254.24 463.52 255.52ZM424.64 298.08C429.44 298.08 435.893 290.4 444 275.04C445.067 273.014 446.187 270.24 447.36 266.72C448.533 263.2 449.707 258.987 450.88 254.08C450.773 253.867 450.72 253.6 450.72 253.28C450.72 252.96 450.72 252.694 450.72 252.48C450.72 251.2 451.04 250.027 451.68 248.96C451.573 248.854 451.467 248.8 451.36 248.8C450.933 248.8 450.347 249.334 449.6 250.4L438.08 267.36C437.013 268.96 435.787 270.934 434.4 273.28C432.907 275.734 431.307 278.614 429.6 281.92C425.653 289.387 423.68 294.294 423.68 296.64C423.68 297.6 424 298.08 424.64 298.08Z" fill="#1E1E1E"/>
<path d="M420.289 255.2C416.769 255.2 413.675 254.187 411.009 252.16C408.342 250.134 407.009 246.72 407.009 241.92C407.009 239.04 407.649 235.947 408.929 232.64C410.209 229.227 411.915 226.027 414.049 223.04C416.289 220.054 418.742 217.6 421.409 215.68C424.075 213.76 426.795 212.8 429.569 212.8C430.635 212.8 431.542 213.174 432.289 213.92C433.142 214.667 433.569 215.787 433.569 217.28C433.569 220.587 431.062 224.587 426.049 229.28C424.022 231.2 421.889 232.907 419.649 234.4C417.515 235.894 415.542 236.96 413.729 237.6C413.302 238.987 413.089 240.587 413.089 242.4C413.089 244.854 413.675 247.094 414.849 249.12C416.022 251.147 417.889 252.16 420.449 252.16C423.649 252.16 426.582 251.254 429.249 249.44C431.915 247.627 434.369 245.44 436.609 242.88C438.849 240.214 440.822 237.76 442.529 235.52C443.275 234.454 444.022 233.92 444.769 233.92C445.195 233.92 445.409 234.134 445.409 234.56C445.409 234.774 445.355 235.04 445.249 235.36C445.142 235.574 445.035 235.787 444.929 236C443.115 238.56 441.035 241.334 438.689 244.32C436.342 247.307 433.675 249.867 430.689 252C427.702 254.134 424.235 255.2 420.289 255.2ZM414.849 234.4C417.622 233.227 420.502 231.147 423.489 228.16C427.009 224.747 428.769 221.76 428.769 219.2C428.769 217.92 428.129 217.28 426.849 217.28C425.142 217.28 422.795 219.734 419.809 224.64C417.142 228.694 415.489 231.947 414.849 234.4Z" fill="#1E1E1E"/>
<path d="M385.998 255.2C379.918 255.2 376.878 251.36 376.878 243.68C376.878 240.267 377.411 236.96 378.478 233.76C379.651 230.56 380.984 227.627 382.478 224.96C378.744 228.267 374.798 232.374 370.638 237.28C366.584 242.08 362.584 247.467 358.638 253.44C357.998 254.4 357.518 254.88 357.198 254.88C356.238 254.88 355.758 253.92 355.758 252C355.758 251.574 355.864 251.147 356.078 250.72C357.251 247.84 358.424 244.534 359.598 240.8C360.771 236.96 361.944 232.48 363.118 227.36C363.331 226.294 363.544 225.227 363.758 224.16C363.971 223.094 364.291 221.707 364.718 220C364.931 219.36 365.678 218.614 366.958 217.76C368.024 217.014 369.091 216.64 370.158 216.64C370.904 216.64 371.278 216.96 371.278 217.6C371.278 218.134 370.638 220.427 369.358 224.48C368.078 228.534 366.211 234.347 363.758 241.92C364.398 241.067 365.731 239.52 367.758 237.28C369.784 234.934 372.451 231.947 375.758 228.32L385.678 217.44C386.424 216.694 387.278 216.32 388.238 216.32C390.691 216.32 391.918 217.547 391.918 220C391.918 220.534 391.704 221.174 391.278 221.92C385.304 231.734 382.318 239.52 382.318 245.28C382.318 249.334 384.238 251.36 388.078 251.36C390.851 251.36 394.051 249.814 397.678 246.72C399.171 245.547 400.451 244.267 401.518 242.88C402.691 241.387 403.918 239.787 405.198 238.08C407.438 234.987 408.718 233.44 409.038 233.44C409.358 233.44 409.518 233.76 409.518 234.4C409.518 235.04 409.198 235.947 408.558 237.12C401.304 249.174 393.785 255.2 385.998 255.2Z" fill="#1E1E1E"/>
<path d="M291.531 319.2C286.305 319.2 282.038 317.707 278.731 314.72C275.211 311.627 273.451 307.627 273.451 302.72C273.451 291.414 281.611 280.48 297.931 269.92C311.798 261.067 325.078 255.627 337.771 253.6C338.518 250.294 339.318 246.187 340.171 241.28C341.025 236.374 341.931 230.667 342.891 224.16C342.251 225.654 341.345 227.467 340.171 229.6C338.998 231.734 337.611 233.974 336.011 236.32C334.198 239.094 332.651 241.387 331.371 243.2C330.091 244.907 328.811 246.4 327.531 247.68C324.865 250.56 322.251 252 319.691 252C316.278 252 314.571 249.014 314.571 243.04C314.571 239.734 315.638 235.627 317.771 230.72C320.118 225.174 322.838 222.4 325.931 222.4C327.425 222.4 328.171 222.827 328.171 223.68C328.171 223.787 327.905 224.32 327.371 225.28C326.838 226.24 325.771 228.107 324.171 230.88C321.505 235.574 320.171 239.254 320.171 241.92C320.171 245.334 321.131 247.04 323.051 247.04C326.465 247.04 333.665 236.32 344.651 214.88C344.865 213.28 346.198 212.48 348.651 212.48C350.571 212.48 351.531 212.907 351.531 213.76C351.531 214.507 351.371 216 351.051 218.24C350.731 220.48 350.198 223.52 349.451 227.36C348.491 232.694 347.638 237.28 346.891 241.12C346.145 244.854 345.238 248.96 344.171 253.44H344.811C350.465 253.44 353.291 254.88 353.291 257.76C353.291 258.4 353.131 258.72 352.811 258.72C352.705 258.72 352.225 258.454 351.371 257.92C350.945 257.707 350.358 257.387 349.611 256.96C348.865 256.64 347.905 256.48 346.731 256.48C346.198 256.48 345.665 256.48 345.131 256.48C344.705 256.48 344.225 256.534 343.691 256.64C339.745 272.427 334.678 284.854 328.491 293.92C316.971 310.774 304.651 319.2 291.531 319.2ZM292.331 316.96C298.945 316.96 305.398 314.187 311.691 308.64C316.705 304.374 321.238 298.774 325.291 291.84C330.945 282.134 335.051 270.347 337.611 256.48C330.678 257.547 322.305 260.587 312.491 265.6C302.571 270.614 295.158 275.52 290.251 280.32C282.145 288 278.091 295.627 278.091 303.2C278.091 307.36 279.371 310.667 281.931 313.12C284.705 315.68 288.171 316.96 292.331 316.96Z" fill="#1E1E1E"/>
<path d="M290.22 255.2C286.7 255.2 283.607 254.187 280.94 252.16C278.273 250.134 276.94 246.72 276.94 241.92C276.94 239.04 277.58 235.947 278.86 232.64C280.14 229.227 281.847 226.027 283.98 223.04C286.22 220.054 288.673 217.6 291.34 215.68C294.007 213.76 296.727 212.8 299.5 212.8C300.567 212.8 301.473 213.174 302.22 213.92C303.073 214.667 303.5 215.787 303.5 217.28C303.5 220.587 300.993 224.587 295.98 229.28C293.953 231.2 291.82 232.907 289.58 234.4C287.447 235.894 285.473 236.96 283.66 237.6C283.233 238.987 283.02 240.587 283.02 242.4C283.02 244.854 283.607 247.094 284.78 249.12C285.953 251.147 287.82 252.16 290.38 252.16C293.58 252.16 296.513 251.254 299.18 249.44C301.847 247.627 304.3 245.44 306.54 242.88C308.78 240.214 310.753 237.76 312.46 235.52C313.207 234.454 313.953 233.92 314.7 233.92C315.127 233.92 315.34 234.134 315.34 234.56C315.34 234.774 315.287 235.04 315.18 235.36C315.073 235.574 314.967 235.787 314.86 236C313.047 238.56 310.967 241.334 308.62 244.32C306.273 247.307 303.607 249.867 300.62 252C297.633 254.134 294.167 255.2 290.22 255.2ZM284.78 234.4C287.553 233.227 290.433 231.147 293.42 228.16C296.94 224.747 298.7 221.76 298.7 219.2C298.7 217.92 298.06 217.28 296.78 217.28C295.073 217.28 292.727 219.734 289.74 224.64C287.073 228.694 285.42 231.947 284.78 234.4Z" fill="#1E1E1E"/>
<path d="M250.284 255.84C247.937 255.84 245.111 255.414 241.804 254.56C238.497 253.814 235.084 252.96 231.564 252C228.044 250.934 224.684 250.027 221.484 249.28C218.284 248.427 215.511 248 213.164 248C210.391 248 207.244 248.694 203.724 250.08C200.204 251.467 196.631 252.587 193.004 253.44C192.151 253.44 191.617 253.334 191.404 253.12C190.764 252.907 190.444 252.16 190.444 250.88C190.444 249.6 191.244 248.8 192.844 248.48C196.577 247.734 200.577 246.08 204.844 243.52C209.111 240.854 213.431 237.707 217.804 234.08C222.177 230.454 226.337 226.72 230.284 222.88C234.337 218.934 237.857 215.36 240.844 212.16C247.244 205.334 253.591 198.72 259.884 192.32C266.284 185.814 271.991 180.267 277.004 175.68C274.764 175.36 271.777 175.04 268.044 174.72C264.311 174.294 260.257 173.974 255.884 173.76C251.617 173.547 247.351 173.494 243.084 173.6C239.031 173.707 235.351 174.614 232.044 176.32C228.737 178.027 226.017 180.267 223.884 183.04C221.857 185.707 220.684 188.64 220.364 191.84C219.937 194.187 220.417 195.947 221.804 197.12C223.297 198.294 224.684 198.88 225.964 198.88C229.057 198.88 231.351 198.027 232.844 196.32C234.337 194.614 236.097 192.587 238.124 190.24C238.231 190.027 238.444 189.92 238.764 189.92C239.191 189.92 239.511 190.134 239.724 190.56C240.044 190.987 240.097 191.36 239.884 191.68C238.284 194.347 236.204 196.694 233.644 198.72C231.191 200.747 228.577 201.76 225.804 201.76C223.137 201.76 220.844 200.907 218.924 199.2C217.111 197.387 216.204 194.987 216.204 192C216.204 191.68 216.204 191.36 216.204 191.04C216.204 190.72 216.257 190.347 216.364 189.92C217.111 185.12 218.977 180.96 221.964 177.44C224.951 173.814 228.577 171.04 232.844 169.12C237.217 167.2 241.644 166.24 246.124 166.24C248.257 166.24 250.871 166.507 253.964 167.04C257.057 167.467 260.151 168 263.244 168.64C266.444 169.174 269.324 169.707 271.884 170.24C274.444 170.667 276.257 170.88 277.324 170.88C279.457 170.88 281.217 170.507 282.604 169.76C283.991 168.907 285.537 167.787 287.244 166.4C288.311 165.44 289.271 164.96 290.124 164.96C291.084 164.96 291.724 165.44 292.044 166.4C292.364 167.36 292.417 168.267 292.204 169.12C292.204 170.294 291.831 171.094 291.084 171.52C285.751 174.08 280.471 177.76 275.244 182.56C270.017 187.254 264.791 192.48 259.564 198.24C254.337 204 249.057 209.76 243.724 215.52C239.564 220 234.977 224.48 229.964 228.96C225.057 233.334 220.524 237.12 216.364 240.32C218.497 240.427 220.951 240.96 223.724 241.92C226.604 242.88 229.591 243.947 232.684 245.12C235.777 246.294 238.711 247.307 241.484 248.16C244.364 249.014 246.871 249.44 249.004 249.44C254.764 249.44 259.831 247.84 264.204 244.64C268.577 241.334 272.897 235.947 277.164 228.48C277.697 227.627 278.391 227.2 279.244 227.2C279.777 227.2 280.044 227.467 280.044 228C280.044 228.534 279.831 229.067 279.404 229.6L278.284 231.2C275.617 235.36 272.897 239.36 270.124 243.2C267.457 246.934 264.524 249.974 261.324 252.32C258.124 254.667 254.444 255.84 250.284 255.84Z" fill="#1E1E1E"/>
<path d="M116.387 254.88C115.534 254.88 115.107 253.92 115.107 252C115.107 251.36 115.161 250.933 115.267 250.72C116.441 247.84 117.667 244.373 118.947 240.32C120.227 236.267 121.507 231.627 122.787 226.4C122.894 225.653 123.001 224.907 123.107 224.16C123.321 223.413 123.641 222.027 124.067 220C124.174 219.787 124.387 219.467 124.707 219.04C125.027 218.613 125.507 218.187 126.147 217.76C127.321 217.013 128.387 216.64 129.347 216.64C130.094 216.64 130.467 216.96 130.467 217.6C130.467 218.133 129.827 220.427 128.547 224.48C127.267 228.533 125.401 234.347 122.947 241.92L140.547 218.4C142.041 216.48 143.694 215.52 145.507 215.52C147.214 215.52 148.067 216.48 148.067 218.4C148.067 219.147 147.961 220.213 147.747 221.6C147.641 222.88 147.374 224.533 146.947 226.56C146.521 228.587 146.094 231.147 145.667 234.24C145.347 237.227 144.921 240.693 144.387 244.64C145.881 242.507 147.747 239.893 149.987 236.8C152.334 233.6 155.107 229.973 158.307 225.92C159.907 223.893 161.614 222.88 163.427 222.88C165.027 222.88 165.827 223.893 165.827 225.92C165.827 226.773 165.721 227.84 165.507 229.12C165.401 230.293 165.241 231.733 165.027 233.44C164.814 235.147 164.601 236.64 164.387 237.92C164.281 239.2 164.227 240.267 164.227 241.12C164.227 246.667 165.667 249.44 168.547 249.44C172.707 249.44 177.881 244.96 184.067 236C184.814 234.933 185.347 234.4 185.667 234.4C186.201 234.4 186.467 234.88 186.467 235.84C186.467 236.053 186.361 236.32 186.147 236.64C186.041 236.853 186.041 236.907 186.147 236.8C184.867 238.507 183.534 240.213 182.147 241.92C180.761 243.627 179.107 245.387 177.187 247.2C172.814 251.467 168.974 253.6 165.667 253.6C160.654 253.6 158.147 248.053 158.147 236.96C158.147 236.107 158.147 235.2 158.147 234.24C158.147 233.28 158.201 232.267 158.307 231.2C156.387 232.907 154.254 235.413 151.907 238.72C149.667 241.92 147.481 245.547 145.347 249.6C143.747 252.587 141.987 254.08 140.067 254.08C139.427 254.08 138.947 253.867 138.627 253.44C138.307 252.267 138.147 250.773 138.147 248.96C138.147 247.573 138.307 245.44 138.627 242.56C138.947 239.573 139.481 236 140.227 231.84C140.547 229.92 140.814 228.267 141.027 226.88C141.241 225.493 141.347 224.533 141.347 224C141.347 223.147 141.187 222.72 140.867 222.72C140.014 223.467 138.734 224.853 137.027 226.88C135.427 228.8 133.774 230.88 132.067 233.12C129.934 236 127.641 239.147 125.187 242.56C122.841 245.867 120.441 249.493 117.987 253.44C117.347 254.4 116.814 254.88 116.387 254.88Z" fill="#1E1E1E"/>
<path d="M93.8327 220.48C93.6194 220.48 93.5127 220.373 93.5127 220.16C93.5127 219.947 93.566 219.733 93.6727 219.52C93.7794 219.307 94.0994 218.88 94.6327 218.24C95.166 217.493 96.0727 216.267 97.3527 214.56C98.7394 212.747 100.446 210.347 102.473 207.36C100.553 207.36 99.5927 206.187 99.5927 203.84C99.5927 200.96 101.406 199.52 105.033 199.52C107.166 199.52 108.233 200.853 108.233 203.52C108.233 205.547 106.313 208.907 102.473 213.6C98.6327 218.187 95.7527 220.48 93.8327 220.48Z" fill="#1E1E1E"/>
<path d="M42.88 259.84C38.72 259.84 36.3733 257.334 35.84 252.32C34.4533 252.427 32.2133 252.8 29.12 253.44C26.0267 254.08 22.3467 254.827 18.08 255.68C14.0267 256.534 10.6667 257.174 8 257.6C5.22667 258.134 3.2 258.4 1.92 258.4C0.64 258.4 0 257.707 0 256.32C0 255.467 0.533334 254.827 1.6 254.4C2.02667 254.187 3.04 253.867 4.64 253.44C6.24 253.014 8.48 252.427 11.36 251.68C15.7333 250.507 19.9467 249.547 24 248.8C28.0533 247.947 32.0533 247.254 36 246.72C36.5333 242.24 37.8667 236.96 40 230.88C42.24 224.8 45.3867 217.547 49.44 209.12C53.1733 201.547 56.6933 194.88 60 189.12C63.3067 183.36 66.6133 178.134 69.92 173.44H67.2C64.1067 173.44 61.2267 173.494 58.56 173.6C55.8933 173.707 53.44 173.867 51.2 174.08C37.8667 175.68 31.2 178.24 31.2 181.76C31.2 183.254 32.6933 184.854 35.68 186.56C38.6667 188.267 40.16 189.44 40.16 190.08C40.16 190.934 39.6267 191.36 38.56 191.36C38.1333 191.36 37.76 191.307 37.44 191.2C28.9067 187.147 24.64 183.574 24.64 180.48C24.64 178.134 26.9333 175.84 31.52 173.6C37.6 170.72 47.52 169.28 61.28 169.28C63.0933 169.28 64.96 169.334 66.88 169.44C68.8 169.44 70.7733 169.494 72.8 169.6C74.08 167.787 76.6933 166.88 80.64 166.88C82.24 166.88 83.04 167.2 83.04 167.84C83.04 168.054 82.5067 168.854 81.44 170.24C87.4133 170.667 93.5467 171.307 99.84 172.16C100.48 172.267 101.28 172.374 102.24 172.48C103.2 172.587 104.267 172.747 105.44 172.96C106.613 173.28 107.2 173.867 107.2 174.72C107.2 175.574 106.613 176 105.44 176L104.96 175.84C102.08 175.52 98.4533 175.2 94.08 174.88C89.7067 174.454 84.5867 174.027 78.72 173.6C74.0267 179.574 69.7067 185.547 65.76 191.52C61.8133 197.387 58.4533 202.934 55.68 208.16C47.2533 224.16 42.1867 236.8 40.48 246.08C45.92 245.44 50.8267 245.12 55.2 245.12C64.9067 245.12 70.7733 246.24 72.8 248.48C73.44 249.227 73.76 250.294 73.76 251.68C73.76 252.534 73.6 253.28 73.28 253.92C73.0667 254.56 72.6933 254.72 72.16 254.4C70.88 253.654 68.96 253.067 66.4 252.64C63.9467 252.214 61.3867 251.894 58.72 251.68C56.16 251.467 54.08 251.36 52.48 251.36C50.56 251.36 48.5333 251.414 46.4 251.52C44.3733 251.627 42.24 251.787 40 252C40.2133 255.094 41.28 256.64 43.2 256.64C43.7333 256.64 44.3733 256.534 45.12 256.32C45.8667 256.214 46.6667 255.894 47.52 255.36C48.3733 254.827 49.0133 254.347 49.44 253.92C49.8667 253.387 50.1333 253.12 50.24 253.12C51.0933 253.12 51.52 253.6 51.52 254.56C51.52 255.947 50.4533 257.12 48.32 258.08C45.9733 259.254 44.16 259.84 42.88 259.84Z" fill="#1E1E1E"/>
<path d="M338.938 77.9202C338.191 77.9202 337.818 77.5469 337.818 76.8002C337.818 74.9869 342.458 65.0669 351.738 47.0402C355.151 40.4269 357.924 35.0935 360.058 31.0402C362.298 26.8802 364.058 23.6269 365.338 21.2802C366.724 18.9335 367.844 17.0135 368.698 15.5202C368.911 15.3069 369.071 15.2002 369.178 15.2002C369.924 15.2002 370.991 15.7335 372.378 16.8002C373.871 17.9735 374.618 18.7735 374.618 19.2002L373.658 20.6402L369.338 27.3602C363.791 36.1069 358.884 44.0002 354.618 51.0402C350.458 58.0802 347.044 64.2135 344.378 69.4402L341.338 75.8402C340.698 77.2269 339.898 77.9202 338.938 77.9202ZM332.378 96.0002C329.604 96.0002 328.218 94.7202 328.218 92.1602C328.218 89.6002 329.604 88.3202 332.378 88.3202C335.044 88.3202 336.378 89.6002 336.378 92.1602C336.378 94.7202 335.044 96.0002 332.378 96.0002Z" fill="#CA65A5"/>
<path d="M261.821 96.16C258.088 96.16 256.221 93.9733 256.221 89.6C256.221 83.52 258.888 76.3733 264.221 68.16C264.115 67.6267 264.008 67.04 263.901 66.4C263.901 65.76 263.901 65.1733 263.901 64.64C263.901 60.8 265.181 57.0667 267.741 53.44C270.301 49.8133 273.448 48 277.181 48C280.381 48 282.515 49.12 283.581 51.36C284.755 53.6 285.341 56.1067 285.341 58.88C285.341 61.2267 285.075 63.4667 284.541 65.6C284.008 67.84 283.208 70.3467 282.141 73.12C281.075 75.8933 279.741 78.8267 278.141 81.92C279.741 82.88 281.555 83.36 283.581 83.36C285.395 83.36 287.101 83.1467 288.701 82.72C290.301 82.1867 291.795 81.2267 293.181 79.84C294.568 78.4533 295.635 77.2267 296.381 76.16C297.235 75.0933 297.608 74.6133 297.501 74.72C297.715 74.5067 297.928 74.4 298.141 74.4C298.568 74.4 298.888 74.6667 299.101 75.2C299.421 75.7333 299.368 76.2667 298.941 76.8C297.235 79.2533 294.995 81.44 292.221 83.36C289.555 85.1733 286.621 86.08 283.421 86.08C280.968 86.08 278.835 85.5467 277.021 84.48C272.115 92.2667 267.048 96.16 261.821 96.16ZM276.061 80.48C277.448 77.0667 278.515 74.1333 279.261 71.68C280.008 69.2267 280.381 66.9333 280.381 64.8V63.52C280.381 60.64 279.901 57.9733 278.941 55.52C277.981 52.96 276.595 51.68 274.781 51.68C272.328 51.68 270.408 53.1733 269.021 56.16C268.061 58.1867 267.581 60.4267 267.581 62.88V63.84C269.288 61.8133 270.995 60.8 272.701 60.8C274.301 60.8 275.475 61.3333 276.221 62.4C276.541 62.8267 276.701 63.2 276.701 63.52C276.701 64.16 276.061 64.48 274.781 64.48C272.861 64.48 270.835 66.5067 268.701 70.56C270.195 74.72 272.648 78.0267 276.061 80.48ZM264.381 92.32C265.768 92.32 267.741 91.04 270.301 88.48C271.368 87.4133 272.275 86.4 273.021 85.44C273.768 84.48 274.355 83.5733 274.781 82.72C271.155 80.2667 268.488 77.5467 266.781 74.56C263.581 81.28 261.981 86.1333 261.981 89.12C261.981 91.2533 262.781 92.32 264.381 92.32Z" fill="#CA65A5"/>
<path d="M233.37 96.32C227.61 96.32 224.037 92.8533 222.65 85.92C222.544 84.96 222.384 84 222.17 83.04C222.064 82.08 222.01 81.12 222.01 80.16C222.01 75.36 222.864 70.4533 224.57 65.44C226.384 60.4267 228.57 55.52 231.13 50.72C233.69 45.92 236.037 41.4933 238.17 37.44C240.197 33.7067 242.437 30.0267 244.89 26.4C247.45 22.6667 249.957 19.2533 252.41 16.16C254.864 13.0667 256.944 10.56 258.65 8.64C261.424 5.54667 264.09 3.36 266.65 2.08C269.21 0.693334 271.504 0 273.53 0C274.917 0 276.144 0.693334 277.21 2.08C278.384 3.57334 278.97 5.01334 278.97 6.4C278.97 13.76 272.09 26.08 258.33 43.36C252.89 50.1867 247.664 56.3733 242.65 61.92C237.637 67.36 232.784 72.2667 228.09 76.64C227.984 77.4933 227.877 78.4 227.77 79.36C227.77 80.2133 227.77 81.0667 227.77 81.92C227.77 85.5467 228.357 88.32 229.53 90.24C230.704 92.0533 232.784 92.96 235.77 92.96C238.757 92.96 242.224 91.2533 246.17 87.84C250.224 84.32 254.384 79.4133 258.65 73.12C258.97 72.5867 259.344 72.2667 259.77 72.16C260.41 72.16 260.73 72.5333 260.73 73.28C260.73 73.8133 260.624 74.24 260.41 74.56C258.917 77.12 257.21 79.5733 255.29 81.92C253.477 84.2667 251.397 86.5067 249.05 88.64C246.384 90.9867 243.717 92.8533 241.05 94.24C238.49 95.6267 235.93 96.32 233.37 96.32ZM228.41 73.12C231.397 70.56 234.917 66.88 238.97 62.08C243.13 57.1733 247.504 51.4667 252.09 44.96C262.437 30.6667 268.624 20.32 270.65 13.92C271.61 10.8267 272.09 8.53334 272.09 7.04C272.09 5.01334 271.397 4.00001 270.01 4.00001C266.917 4.00001 263.13 6.98667 258.65 12.96C256.09 16.3733 253.104 20.7467 249.69 26.08C246.277 31.3067 242.97 37.0133 239.77 43.2C236.037 50.3467 233.37 56.2667 231.77 60.96C230.277 65.6533 229.157 69.7067 228.41 73.12Z" fill="#CA65A5"/>
<path d="M195.639 96.32C189.879 96.32 186.305 92.8533 184.919 85.92C184.812 84.96 184.652 84 184.439 83.04C184.332 82.08 184.279 81.12 184.279 80.16C184.279 75.36 185.132 70.4533 186.839 65.44C188.652 60.4267 190.839 55.52 193.399 50.72C195.959 45.92 198.305 41.4933 200.439 37.44C202.465 33.7067 204.705 30.0267 207.159 26.4C209.719 22.6667 212.225 19.2533 214.679 16.16C217.132 13.0667 219.212 10.56 220.919 8.64C223.692 5.54667 226.359 3.36 228.919 2.08C231.479 0.693334 233.772 0 235.799 0C237.185 0 238.412 0.693334 239.479 2.08C240.652 3.57334 241.239 5.01334 241.239 6.4C241.239 13.76 234.359 26.08 220.599 43.36C215.159 50.1867 209.932 56.3733 204.919 61.92C199.905 67.36 195.052 72.2667 190.359 76.64C190.252 77.4933 190.145 78.4 190.039 79.36C190.039 80.2133 190.039 81.0667 190.039 81.92C190.039 85.5467 190.625 88.32 191.799 90.24C192.972 92.0533 195.052 92.96 198.039 92.96C201.025 92.96 204.492 91.2533 208.439 87.84C212.492 84.32 216.652 79.4133 220.919 73.12C221.239 72.5867 221.612 72.2667 222.039 72.16C222.679 72.16 222.999 72.5333 222.999 73.28C222.999 73.8133 222.892 74.24 222.679 74.56C221.185 77.12 219.479 79.5733 217.559 81.92C215.745 84.2667 213.665 86.5067 211.319 88.64C208.652 90.9867 205.985 92.8533 203.319 94.24C200.759 95.6267 198.199 96.32 195.639 96.32ZM190.679 73.12C193.665 70.56 197.185 66.88 201.239 62.08C205.399 57.1733 209.772 51.4667 214.359 44.96C224.705 30.6667 230.892 20.32 232.919 13.92C233.879 10.8267 234.359 8.53334 234.359 7.04C234.359 5.01334 233.665 4.00001 232.279 4.00001C229.185 4.00001 225.399 6.98667 220.919 12.96C218.359 16.3733 215.372 20.7467 211.959 26.08C208.545 31.3067 205.239 37.0133 202.039 43.2C198.305 50.3467 195.639 56.2667 194.039 60.96C192.545 65.6533 191.425 69.7067 190.679 73.12Z" fill="#CA65A5"/>
<path d="M159.608 95.2003C156.088 95.2003 152.994 94.187 150.328 92.1603C147.661 90.1336 146.328 86.7203 146.328 81.9203C146.328 79.0403 146.968 75.947 148.248 72.6403C149.528 69.227 151.234 66.027 153.368 63.0403C155.608 60.0536 158.061 57.6003 160.728 55.6803C163.394 53.7603 166.114 52.8003 168.888 52.8003C169.954 52.8003 170.861 53.1736 171.608 53.9203C172.461 54.667 172.888 55.787 172.888 57.2803C172.888 60.587 170.381 64.587 165.368 69.2803C163.341 71.2003 161.208 72.907 158.968 74.4003C156.834 75.8936 154.861 76.9603 153.048 77.6003C152.621 78.987 152.408 80.587 152.408 82.4003C152.408 84.8536 152.994 87.0936 154.168 89.1203C155.341 91.147 157.208 92.1603 159.768 92.1603C162.968 92.1603 165.901 91.2536 168.568 89.4403C171.234 87.627 173.688 85.4403 175.928 82.8803C178.168 80.2136 180.141 77.7603 181.848 75.5203C182.594 74.4536 183.341 73.9203 184.088 73.9203C184.514 73.9203 184.728 74.1336 184.728 74.5603C184.728 74.7736 184.674 75.0403 184.568 75.3603C184.461 75.5736 184.354 75.787 184.248 76.0003C182.434 78.5603 180.354 81.3336 178.008 84.3203C175.661 87.307 172.994 89.867 170.008 92.0003C167.021 94.1336 163.554 95.2003 159.608 95.2003ZM154.168 74.4003C156.941 73.227 159.821 71.147 162.808 68.1603C166.328 64.747 168.088 61.7603 168.088 59.2003C168.088 57.9203 167.448 57.2803 166.168 57.2803C164.461 57.2803 162.114 59.7336 159.128 64.6403C156.461 68.6936 154.808 71.947 154.168 74.4003Z" fill="#CA65A5"/>
<path d="M33.7599 108.8C26.5066 108.8 20.2133 107.04 14.8799 103.52C8.90659 99.467 5.91992 93.9203 5.91992 86.8803C5.91992 73.7603 16.7466 64.1603 38.3999 58.0803C45.6533 55.947 53.3333 54.4003 61.4399 53.4403C69.6533 52.4803 78.1866 52.0003 87.0399 52.0003C88.9599 52.0003 90.7733 52.0537 92.4799 52.1603C94.1866 52.1603 95.7333 52.2137 97.1199 52.3203C102.667 38.667 105.44 28.4803 105.44 21.7603C105.44 17.6003 104.107 15.5203 101.44 15.5203C100.053 15.5203 98.2933 16.107 96.1599 17.2803C94.0266 18.4537 92.8533 19.0403 92.6399 19.0403C91.9999 19.0403 91.6799 18.5603 91.6799 17.6003C91.6799 16.2137 93.4399 14.827 96.9599 13.4403C100.16 12.1603 102.72 11.5203 104.64 11.5203C109.547 11.5203 112 14.987 112 21.9203C112 29.2803 109.44 39.627 104.32 52.9603C113.92 54.2403 121.173 55.7337 126.08 57.4403L131.2 45.9203C135.04 37.2803 138.667 30.027 142.08 24.1603C145.6 18.187 148.747 13.547 151.52 10.2403C153.013 8.64033 155.573 7.84033 159.2 7.84033C160.587 7.84033 161.28 8.107 161.28 8.64033C161.28 8.747 161.173 9.01366 160.96 9.44033C147.733 27.147 137.653 43.787 130.72 59.3603C137.547 62.667 140.96 66.187 140.96 69.9203C140.96 70.667 140.693 71.5737 140.16 72.6403C139.52 73.6003 138.827 74.0803 138.08 74.0803C136.8 74.0803 136.16 73.4403 136.16 72.1603C136.16 71.8403 136.32 71.467 136.64 71.0403C136.96 70.507 137.12 70.0803 137.12 69.7603C137.12 67.627 134.453 65.3337 129.12 62.8803C123.36 76.427 120.48 86.4537 120.48 92.9603C120.48 96.8003 121.6 98.7203 123.84 98.7203C124.693 98.7203 126.027 98.1337 127.84 96.9603C129.76 95.6803 130.72 95.0403 130.72 95.0403C131.68 95.0403 132.16 95.5203 132.16 96.4803C132.16 97.6537 131.093 98.827 128.96 100C126.72 101.28 124.907 101.92 123.52 101.92C118.613 101.92 116.16 98.667 116.16 92.1603C116.16 85.547 118.987 75.2003 124.64 61.1203C118.88 59.307 111.467 57.9203 102.4 56.9603C98.7733 63.787 94.6666 69.9203 90.0799 75.3603C85.4933 80.8003 80.0533 86.1337 73.7599 91.3603C66.2933 97.547 59.2533 101.974 52.6399 104.64C46.0266 107.414 39.7333 108.8 33.7599 108.8ZM33.7599 104.96C45.2799 104.96 57.3333 99.467 69.9199 88.4803C80.6933 78.987 89.0666 68.3203 95.0399 56.4803C93.8666 56.3737 92.5333 56.3203 91.0399 56.3203C89.6533 56.2137 88.2133 56.1603 86.7199 56.1603C70.6133 56.1603 55.6799 58.0803 41.9199 61.9203C21.6533 67.467 11.5199 76.1603 11.5199 88.0003C11.5199 93.6537 13.9733 97.9737 18.8799 100.96C22.9333 103.627 27.8933 104.96 33.7599 104.96Z" fill="#CA65A5"/>
</g>
<defs>
<clipPath id="clip0_60_711">
<rect width="518.904" height="319.2" fill="white"/>
</clipPath>
</defs>
</svg>
