<svg width="28" height="23" viewBox="0 0 28 23" fill="none" xmlns="http://www.w3.org/2000/svg">
<path d="M12.9375 20.6719C12.7969 20.5781 12.7266 20.4766 12.7266 20.3672C12.7109 20.2578 12.7344 20.1484 12.7969 20.0391C12.8594 19.9141 12.9531 19.7891 13.0781 19.6641C13.2031 19.5547 13.3516 19.2734 13.5234 18.8203C13.6953 18.3828 13.875 17.8516 14.0625 17.2266C14.2656 16.5859 14.4609 15.8906 14.6484 15.1406C14.8516 14.3906 15.0391 13.6562 15.2109 12.9375C15.3828 12.2188 15.5312 11.5547 15.6562 10.9453C15.7812 10.3359 15.875 9.85156 15.9375 9.49219C16.0156 9.05469 16.1016 8.57812 16.1953 8.0625C16.2734 7.60938 16.3594 7.08594 16.4531 6.49219C16.5469 5.88281 16.6328 5.21094 16.7109 4.47656L18.5859 3.63281C18.8516 3.50781 19.0391 3.53906 19.1484 3.72656C19.2578 3.89844 19.2578 4.26562 19.1484 4.82812C19.1016 5.10938 19.0156 5.57031 18.8906 6.21094C18.7656 6.83594 18.6172 7.53125 18.4453 8.29688C18.2891 9.04688 18.1172 9.82031 17.9297 10.6172C17.7578 11.3984 17.5859 12.0938 17.4141 12.7031C17.2578 13.2812 17.0781 13.9453 16.875 14.6953C16.5156 15.9766 16.0156 17.7266 15.375 19.9453C15.5937 20.3203 16 20.5078 16.5937 20.5078C17.25 20.5078 18.0078 20.2578 18.8672 19.7578C19.7422 19.2578 20.5859 18.5078 21.3984 17.5078C22.2109 16.5078 22.9219 15.2578 23.5312 13.7578C24.1562 12.2422 24.5469 10.4766 24.7031 8.46094C24.7812 7.36719 24.7266 6.40625 24.5391 5.57812C24.3516 4.75 24.0625 4.05469 23.6719 3.49219C23.2969 2.92969 22.8281 2.50781 22.2656 2.22656C21.7187 1.94531 21.1094 1.80469 20.4375 1.80469C18.8594 1.80469 17.2266 2.46094 15.5391 3.77344L15.4219 1.82812C15.8281 1.375 16.2891 1.03125 16.8047 0.796875C17.3359 0.546875 17.8281 0.359375 18.2812 0.234375C18.8125 0.09375 19.3516 0.015625 19.8984 0C20.8984 0 21.8594 0.195312 22.7812 0.585938C23.7187 0.960938 24.5234 1.53906 25.1953 2.32031C25.8828 3.10156 26.4062 4.08594 26.7656 5.27344C27.125 6.44531 27.25 7.82031 27.1406 9.39844C27.0781 10.3047 26.8906 11.25 26.5781 12.2344C26.2812 13.2031 25.8828 14.1562 25.3828 15.0938C24.8984 16.0312 24.3203 16.9219 23.6484 17.7656C22.9766 18.6094 22.2422 19.3438 21.4453 19.9688C20.6484 20.6094 19.7969 21.1094 18.8906 21.4688C17.9844 21.8438 17.0469 22.0312 16.0781 22.0312C15.7812 22.0156 15.4609 21.9609 15.1172 21.8672C14.8203 21.7891 14.4844 21.6562 14.1094 21.4688C13.7344 21.2812 13.3437 21.0156 12.9375 20.6719Z" fill="#1E1E1E"/>
<path d="M3.60938 13.7344C3.9375 13.3281 4.32031 12.8594 4.75781 12.3281C5.19531 11.7812 5.65625 11.2109 6.14062 10.6172C6.64062 10.0078 7.14062 9.38281 7.64062 8.74219C8.15625 8.08594 8.64062 7.45312 9.09375 6.84375C9.54688 6.23438 9.95312 5.65625 10.3125 5.10938C10.6719 4.5625 10.9609 4.07812 11.1797 3.65625C11.2734 3.45312 11.3516 3.25781 11.4141 3.07031C11.4766 2.89844 11.5234 2.72656 11.5547 2.55469C11.6016 2.36719 11.6094 2.1875 11.5781 2.01562C11.125 2.01562 10.5859 2.03125 9.96094 2.0625C9.33594 2.07812 8.67188 2.125 7.96875 2.20312C7.28125 2.28125 6.58594 2.39844 5.88281 2.55469C5.19531 2.71094 4.5625 2.92969 3.98438 3.21094C3.90625 3.14844 3.85156 3.04688 3.82031 2.90625C3.80469 2.76562 3.8125 2.60938 3.84375 2.4375C3.85938 2.26562 3.89844 2.0625 3.96094 1.82812C4.02344 1.625 4.09375 1.4375 4.17188 1.26562C4.25 1.125 4.32812 0.984375 4.40625 0.84375C4.5 0.703125 4.60938 0.601562 4.73438 0.539062C5.32812 0.460938 5.88281 0.398438 6.39844 0.351562C6.91406 0.304688 7.375 0.265625 7.78125 0.234375C8.25 0.203125 8.67969 0.1875 9.07031 0.1875C9.61719 0.203125 10.1484 0.21875 10.6641 0.234375C11.1172 0.265625 11.5938 0.296875 12.0938 0.328125C12.6094 0.34375 13.0859 0.390625 13.5234 0.46875C13.6016 0.6875 13.6562 0.914062 13.6875 1.14844C13.7344 1.38281 13.7656 1.59375 13.7812 1.78125C13.7969 2 13.8047 2.21875 13.8047 2.4375C13.7734 2.98438 13.5312 3.69531 13.0781 4.57031C12.625 5.44531 12.0469 6.35156 11.3438 7.28906C11.1094 7.58594 10.8125 7.96094 10.4531 8.41406C10.0938 8.85156 9.6875 9.34375 9.23438 9.89062C8.79688 10.4219 8.32812 10.9922 7.82812 11.6016C7.34375 12.1953 6.85156 12.7969 6.35156 13.4062C5.86719 14 5.39062 14.5938 4.92188 15.1875C4.46875 15.7656 4.0625 16.3047 3.70312 16.8047C3.29688 17.3516 2.95312 17.8828 2.67188 18.3984C2.40625 18.9297 2.19531 19.3906 2.03906 19.7812C2.44531 19.625 3.07031 19.4453 3.91406 19.2422C4.75781 19.0547 5.75781 18.9609 6.91406 18.9609C7.52344 18.9609 8.09375 18.9844 8.625 19.0312C9.07812 19.0625 9.52344 19.1172 9.96094 19.1953C10.4141 19.2891 10.75 19.4062 10.9688 19.5469C10.9375 19.7031 10.8594 19.8906 10.7344 20.1094C10.625 20.2969 10.4531 20.5234 10.2188 20.7891C9.98438 21.0703 9.66406 21.3906 9.25781 21.75C8.64844 21.625 8.07812 21.5234 7.54688 21.4453C7.01562 21.3828 6.54688 21.3359 6.14062 21.3047C5.67188 21.2578 5.24219 21.2344 4.85156 21.2344C4.46094 21.2344 4.03906 21.2656 3.58594 21.3281C3.19531 21.375 2.75 21.4375 2.25 21.5156C1.76562 21.6094 1.25 21.7422 0.703125 21.9141C0.546875 21.8203 0.429688 21.6562 0.351562 21.4219C0.257812 21.1875 0.1875 20.9531 0.140625 20.7188C0.078125 20.4375 0.03125 20.1328 0 19.8047C0.40625 18.8828 0.828125 18.0547 1.26562 17.3203C1.6875 16.5703 2.07812 15.9297 2.4375 15.3984C2.84375 14.7734 3.23438 14.2188 3.60938 13.7344Z" fill="#1E1E1E"/>
</svg>
