<svg width="33" height="31" viewBox="0 0 33 31" fill="none" xmlns="http://www.w3.org/2000/svg">
<path d="M27.192 30.16C26.264 30.16 25.304 30.032 24.312 29.776C23.336 29.52 22.368 29.192 21.408 28.792C20.448 28.408 19.552 28 18.72 27.568C18.256 27.328 17.768 27.08 17.256 26.824C16.744 26.568 16.256 26.248 15.792 25.864C15.392 25.512 14.904 25.168 14.328 24.832C13.752 24.512 13.128 24.136 12.456 23.704C11.704 23.224 10.968 22.768 10.248 22.336C9.52801 21.904 8.74401 21.584 7.89601 21.376C7.35201 21.232 6.78401 21.16 6.19201 21.16C5.60001 21.16 5.05601 21.192 4.56001 21.256C4.06401 21.32 3.56001 21.52 3.04801 21.856C2.96801 21.904 2.79201 22 2.52001 22.144C2.24801 22.304 1.96801 22.456 1.68001 22.6C1.40801 22.744 1.21601 22.816 1.10401 22.816L0.864007 21.64L0.0960068 22.168C0.0320068 21.752 0.0880068 21.36 0.264007 20.992C0.440007 20.608 0.672007 20.256 0.960007 19.936C1.24801 19.616 1.53601 19.344 1.82401 19.12C2.11201 18.88 2.32801 18.704 2.47201 18.592C3.67201 17.568 4.76801 16.448 5.76001 15.232C6.76801 14.016 7.76001 12.8 8.73601 11.584C9.20001 11.024 9.72801 10.496 10.32 10C10.928 9.488 11.432 8.96 11.832 8.416C11.528 8.432 11.192 8.44 10.824 8.44C10.472 8.424 10.096 8.384 9.69601 8.32C9.26401 8.24 8.76001 8.16 8.18401 8.08C7.60801 7.984 7.04001 7.936 6.48001 7.936C6.27201 7.936 6.07201 7.936 5.88001 7.936C5.70401 7.936 5.55201 7.968 5.42401 8.032C5.04001 8.192 4.76801 8.392 4.60801 8.632C4.44801 8.872 4.39201 9.224 4.44001 9.688C4.47201 9.832 4.48801 9.968 4.48801 10.096C4.50401 10.208 4.52001 10.304 4.53601 10.384C4.56801 10.544 4.56801 10.6 4.53601 10.552C4.50401 10.504 4.42401 10.432 4.29601 10.336L3.55201 11.44C3.44001 11.312 3.31201 11.208 3.16801 11.128C3.02401 11.032 2.93601 10.88 2.90401 10.672C2.85601 10.448 2.83201 10.248 2.83201 10.072C2.83201 9.896 2.83201 9.776 2.83201 9.712C2.76801 8.816 2.92001 8.152 3.28801 7.72C3.67201 7.272 4.19201 6.88 4.84801 6.544C5.21601 6.352 5.75201 6.256 6.45601 6.256C7.01601 6.256 7.60801 6.296 8.23201 6.376C8.87201 6.44 9.44001 6.528 9.93601 6.64C10.24 6.688 10.568 6.72 10.92 6.736C11.272 6.736 11.648 6.736 12.048 6.736C12.176 6.736 12.312 6.696 12.456 6.616C12.616 6.536 12.776 6.504 12.936 6.52H13.032C13.16 6.392 13.296 6.272 13.44 6.16C13.584 6.048 13.736 5.944 13.896 5.848C14.12 5.72 14.296 5.6 14.424 5.488C14.552 5.376 14.72 5.32 14.928 5.32L15.216 5.752C15.248 5.752 15.256 5.76 15.24 5.776C15.24 5.776 15.248 5.776 15.264 5.776L15.84 6.016C15.888 6.176 15.904 6.28 15.888 6.328C15.888 6.376 15.896 6.416 15.912 6.448C16.024 7.056 16 7.488 15.84 7.744C15.696 8 15.488 8.152 15.216 8.2C14.944 8.232 14.672 8.248 14.4 8.248C14.288 8.248 14.176 8.264 14.064 8.296C13.952 8.312 13.832 8.336 13.704 8.368C13.688 8.432 13.664 8.496 13.632 8.56C13.6 8.608 13.568 8.664 13.536 8.728C13.232 9.32 12.864 9.84 12.432 10.288C12.016 10.736 11.584 11.152 11.136 11.536C10.704 11.92 10.304 12.336 9.93601 12.784C8.91201 14.032 7.90401 15.264 6.91201 16.48C5.92001 17.68 4.80801 18.8 3.57601 19.84C3.59201 19.84 3.53601 19.888 3.40801 19.984C3.82401 19.84 4.24801 19.736 4.68001 19.672C5.11201 19.592 5.60001 19.552 6.14401 19.552C6.41601 19.552 6.72001 19.568 7.05601 19.6C7.39201 19.616 7.76801 19.672 8.18401 19.768C9.09601 19.96 9.97601 20.288 10.824 20.752C11.672 21.2 12.512 21.688 13.344 22.216C14 22.632 14.624 23.008 15.216 23.344C15.808 23.696 16.352 24.08 16.848 24.496C17.2 24.8 17.592 25.072 18.024 25.312C18.472 25.552 18.936 25.784 19.416 26.008C20.248 26.408 21.096 26.8 21.96 27.184C22.824 27.584 23.688 27.912 24.552 28.168C25.432 28.424 26.296 28.552 27.144 28.552C27.448 28.552 27.76 28.488 28.08 28.36C28.4 28.232 28.664 28.072 28.872 27.88C29.08 27.688 29.168 27.504 29.136 27.328C29.12 27.248 29.112 27.2 29.112 27.184C29.128 27.184 29.136 27.176 29.136 27.16C29.088 27.064 29.032 26.952 28.968 26.824C28.92 26.712 28.872 26.576 28.824 26.416L30.408 25.96C30.44 26.04 30.488 26.168 30.552 26.344C30.632 26.52 30.688 26.712 30.72 26.92C30.752 27.112 30.76 27.288 30.744 27.448C30.728 27.624 30.704 27.776 30.672 27.904L30.696 27.928C30.52 28.616 30.104 29.16 29.448 29.56C28.792 29.96 28.04 30.16 27.192 30.16ZM15.072 5.776L15.096 5.752H15.072V5.776ZM19.3361 22C19.3521 22 19.3121 22.016 19.2161 22.048C19.1201 22.08 19.0321 21.992 18.9521 21.784C18.8881 21.64 18.8561 21.208 18.8561 20.488C18.8561 20.28 18.8561 20 18.8561 19.648C18.8721 19.296 18.8801 18.96 18.8801 18.64C18.8961 18.32 18.9041 18.104 18.9041 17.992C18.8881 17.864 18.8801 17.728 18.8801 17.584C18.8801 17.44 18.8801 17.304 18.8801 17.176C18.8801 16.44 18.8961 15.712 18.9281 14.992C18.9761 14.256 19.0001 13.528 19.0001 12.808C19.0001 12.04 18.9681 11.272 18.9041 10.504C18.8401 9.736 18.7921 8.96 18.7601 8.176C18.4721 8.208 18.3281 8.216 18.3281 8.2L17.4641 6.904C17.8481 6.6 18.8961 6.448 20.6081 6.448C21.0561 6.448 21.4641 6.456 21.8321 6.472C22.2161 6.488 22.4801 6.496 22.6241 6.496C22.8641 6.512 23.0321 6.52 23.1281 6.52C23.2241 6.504 23.3041 6.488 23.3681 6.472C23.4321 6.44 23.5201 6.416 23.6321 6.4C23.7601 6.384 23.9761 6.376 24.2801 6.376C25.2561 6.376 26.1201 6.608 26.8721 7.072C27.6401 7.52 28.2881 8.112 28.8161 8.848C29.3441 9.568 29.7441 10.352 30.0161 11.2C30.3041 12.032 30.4481 12.84 30.4481 13.624C30.4481 13.928 30.4321 14.24 30.4001 14.56C30.3841 14.864 30.3441 15.144 30.2801 15.4C30.0881 16.232 29.7841 17.048 29.3681 17.848C28.9681 18.632 28.5041 19.32 27.9761 19.912C27.4641 20.488 26.9281 20.888 26.3681 21.112C25.8721 21.304 25.4241 21.456 25.0241 21.568C24.6401 21.68 24.2561 21.76 23.8721 21.808C23.4881 21.856 23.0401 21.896 22.5281 21.928C21.9841 21.944 21.4401 21.952 20.8961 21.952C20.3681 21.936 19.8481 21.952 19.3361 22ZM20.2961 20.272C20.6641 20.272 21.0241 20.272 21.3761 20.272C21.7441 20.272 22.1041 20.264 22.4561 20.248C23.0801 20.2 23.6801 20.128 24.2561 20.032C24.8481 19.92 25.3761 19.768 25.8401 19.576C26.2881 19.4 26.7121 19.064 27.1121 18.568C27.5121 18.072 27.8641 17.504 28.1681 16.864C28.4881 16.224 28.7201 15.592 28.8641 14.968C28.9281 14.744 28.9681 14.528 28.9841 14.32C29.0001 14.112 29.0081 13.88 29.0081 13.624C29.0081 12.648 28.7921 11.744 28.3601 10.912C27.9281 10.064 27.3521 9.376 26.6321 8.848C25.9281 8.32 25.1441 8.056 24.2801 8.056C24.1681 8.056 23.9441 8.08 23.6081 8.128C23.2721 8.176 22.9201 8.192 22.5521 8.176C22.4081 8.176 22.1521 8.168 21.7841 8.152C21.4321 8.136 21.0401 8.128 20.6081 8.128H20.2001C20.2321 8.864 20.2801 9.624 20.3441 10.408C20.4081 11.176 20.4401 11.976 20.4401 12.808C20.4401 13.56 20.4161 14.304 20.3681 15.04C20.3361 15.76 20.3201 16.472 20.3201 17.176C20.3201 17.32 20.3201 17.456 20.3201 17.584C20.3201 17.696 20.3281 17.816 20.3441 17.944C20.3441 18.056 20.3361 18.256 20.3201 18.544C20.3201 18.832 20.3121 19.136 20.2961 19.456C20.2961 19.776 20.2961 20.048 20.2961 20.272Z" fill="#1E1E1E"/>
</svg>
